<?xml version="1.0" encoding="UTF-8"?><svg id="Capa_1" xmlns="http://www.w3.org/2000/svg" viewBox="0 0 420.87 405.98"><defs><style>.cls-1{fill:#007575;}.cls-2{fill:#fff;}</style></defs><path class="cls-1" d="M271.03,0c104.47,0,149.85,35.27,149.85,100.06s-56.6,305.92-161.77,305.92C163.37,405.98,0,224.99,0,131.93S193,0,271.03,0Z"/><g><path class="cls-2" d="M286.84,280.5l-2.85,3.1c-4.16-3.59-7.91-5.14-13.05-5.14-6.85,0-11.58,3.59-11.58,9.46s3.02,8.32,13.05,11.33c10.03,3.1,16.15,6.69,16.15,16.55s-7.26,16.15-18.51,16.15c-7.67,0-13.29-2.69-17.86-7.01l2.85-3.1c4.08,3.59,8.4,5.95,14.92,5.95,7.83,0,13.62-4.32,13.62-11.82,0-6.77-3.34-9.54-13.29-12.64-11.09-3.42-15.9-7.26-15.9-15.33s6.6-13.7,16.39-13.7c7.26,0,11.66,2.28,16.06,6.2Z"/><path class="cls-2" d="M324.92,279.27h-22.91v20.79h19.81v4.08h-19.81v22.83h24.06v4.08h-28.95v-55.86h28.38l-.57,4.08Z"/></g><g><path class="cls-2" d="M100.5,168.82h-20.06l-19.2-51.54c.77,6.05,2.02,14.88,2.02,27.17v24.38h-14.01V102.31h19.58l19.68,51.64c-.86-5.38-2.11-14.11-2.11-24.76v-26.88h14.11v66.52Z"/><path class="cls-2" d="M152.05,113.54h-23.42v15.93h20.44v11.04h-20.44v16.99h25.05v11.33h-40.79V102.31h40.79l-1.63,11.23Z"/><path class="cls-2" d="M228.27,168.82h-20.44l-8.25-50.77-8.73,50.77h-19.96l-10.94-66.52h15.74l6.62,54.62,9.21-54.62h16.51l8.64,54.62,7.77-54.62h14.97l-11.13,66.52Z"/></g><g><path class="cls-2" d="M164.35,254.92h-20.42l-8.25-50.72-8.73,50.72h-19.94l-10.93-66.45h15.73l6.62,54.56,9.2-54.56h16.49l8.63,54.56,7.77-54.56h14.96l-11.12,66.45Z"/><path class="cls-2" d="M239.54,221.65c0,21.77-11.22,34.9-30.01,34.9s-29.92-12.75-29.92-34.9,11.22-34.81,29.92-34.81,30.01,12.66,30.01,34.81Zm-43.44,0c0,16.88,4.79,23.39,13.42,23.39s13.52-6.52,13.52-23.39-4.6-23.3-13.52-23.3-13.42,6.52-13.42,23.3Z"/><path class="cls-2" d="M270.8,229.51h-6.14v25.41h-15.73v-66.45h21.77c18.03,0,27.33,6.42,27.33,20.23,0,8.73-4.12,13.91-12.75,17.93l16.88,28.29h-17.74l-13.62-25.41Zm-6.14-10.83h6.62c6.9,0,10.55-2.97,10.55-9.97,0-6.42-3.74-9.2-11.51-9.2h-5.66v19.18Z"/><path class="cls-2" d="M325.75,254.92h-15.73v-66.45h15.73v66.45Zm16.97-36.63l22.92,36.63h-18.22l-21.19-35.48,21.09-30.97h16.59l-21.19,29.82Z"/></g></svg>